<?xml version="1.0" encoding="UTF-8" standalone="no"?>
<!DOCTYPE svg  PUBLIC '-//W3C//DTD SVG 20010904//EN'  'http://www.w3.org/TR/2001/REC-SVG-20010904/DTD/svg10.dtd'>
<svg xmlns="http://www.w3.org/2000/svg" height="392pt" width="522pt" version="1.0" preserveAspectRatio="xMidYMid meet" viewBox="0 0 522.000000 392.000000">
 <metadata>Created by potrace 1.13, written by Peter Selinger 2001-2015</metadata>
 <g transform="translate(0 392) scale(0.1 -0.1)">
  <path d="m0 3476c1-339 4-446 13-449 9-4 9-6 0-6-7-1-13-10-13-20 0-19 9-20 183-21 100 0 194-2 210-4 15-3 27-1 27 3s16 5 35 3 32-8 29-13c-3-6 6-7 22-3 19 5 25 4 20-5-5-7 0-11 13-11 12 0 21-4 21-10 0-5 5-10 11-10 15 0 39-26 32-34-4-3-15-6-25-6-11 0-17-4-13-9 3-6-3-14-12-20-17-10-17-10 0-11 10 0 20 6 23 14s20 17 37 20c23 5 28 9 18 15-8 5-9 11-3 15 12 7 20-11 17-40-1-19 2-21 29-13 16 5 32 6 35 4 2-3-1-5-7-5-7 0-12-7-12-15s4-15 9-15 12-7 15-16c6-15 4-15-10-3-15 12-16 11-9-10 5-16 4-21-4-17-6 4-20 4-32 1-15-5-17-10-9-20 6-7 8-19 4-28-7-20 13-32 32-16 13 10 13 14-1 29-22 24-19 31 11 20 16-7 23-7 19 0-3 6-2 10 3 10s9-15 9-32c1-27-1-29-8-13-6 15-7 10-5-17 2-22-2-42-10-49-15-13-10-47 11-68 13-14 15-14 15 0 0 8-5 20-11 26s-9 17-7 24c3 8 12-1 21-21 12-23 14-37 7-44-14-14-13-29 2-24 7 3 15 15 18 29 6 22 7 22 12-9l5-32h-131c-72 1-140-1-151-3-11-3-127-8-257-12-199-6-238-10-238-22 0-13 26-14 183-8 351 13 587 15 587 5 0-6-4-10-8-10s-8-9-8-20c0-15 7-20 26-19 17 1 19 3 8 6-10 2-18 8-18 13s6 7 13 4c14-5 14 21-2 121-13 84-17 228-7 302l8 62-38 4c-23 2-16 4 19 3 53-1 57 1 57 21 0 22-4 22-112 25-111 3-111 3-113 28-2 14-10 93-19 175-9 83-16 161-16 175 1 22 2 23 11 8 5-10 19-18 29-18 13 0 18-5 14-15-4-8-1-15 5-15s11 7 11 15 7 15 16 15c14 0 14-3 4-15-10-13-9-15 9-15 11 0 21-4 21-10 0-5 9-10 20-10 25 0 27 17 3 22-15 3-14 5 4 10 12 3 21 3 20-1-1-3 11-19 25-35 25-26 29-27 43-12 9 9 21 16 26 16 15 0 39-26 39-42-1-8-6-6-15 6-8 11-18 16-22 12-4-3 4-17 16-29 16-15 25-18 28-9 3 6 9 12 14 12 6 0 7-5 3-12s-3-8 5-4c6 4 20 5 30 1 14-4 17-13 15-35-3-25 0-30 17-30 16 0 20 5 16 20-3 11-3 20 0 20 12 0 33-30 32-47 0-16-1-16-9 2s-9 18-9 2c-1-10 7-21 16-24 15-6 15-7-3-14-17-7-17-8-1-8 9-1 17-5 17-11 0-18-31-10-56 15-36 36-39 17-19-131 9-69 13-129 10-132s-5 0-5 7-5 9-10 6c-6-4-7-13-1-24 8-14 24-17 83-18 43 0 63 2 48 6-25 7-24 7 7 14 17 3 44 2 60-2 16-5 81-12 144-17 104-8 109-9 59-15l-55-6 47-1c26-1 57 2 70 6 32 12 325-11 340-26 7-7 19-12 27-12 14 0 14 2 1 11-11 8 2 9 49 5 35-3 80-7 100-8 35-1 35-1-9-8-31-6-22-6 33-4 49 3 76 1 73-5-4-6 19-10 56-10 90-1 97-3 91-18-3-7-9-13-15-13-5 0-6-5-3-10 4-6 13-3 23 9 16 19 76 31 97 20 6-3 35-3 65 1s47 8 38 9c-38 3-16 17 27 17 45 0 45 0 45-36v-36l-117-12c-80-9-119-9-121-2-5 14-34 12-56-5-11-8-31-15-45-15s-33-5-41-11c-11-7-6-9 18-4 32 7 33 6 23-13-10-20-9-20 42-16 28 3 95 8 148 13 71 6 104 13 125 28 16 11 36 21 44 21 8 1 39 4 67 8 45 6 53 4 53-10 0-12 9-16 36-16 19 0 33 4 30 9-3 4-17 6-31 3-18-3-25 0-25 11s13 16 50 19c28 1 50-1 50-6 0-6 6-2 13 8s32 20 57 23 53 13 63 21c13 11 20 13 25 5 11-18 103-28 112-13 11 19 57 4 63-20 3-13 0-20-8-20-7 0-16-6-18-12-4-10-8-9-16 2-10 13-11 13-12 0-1-8 0-25 1-37 0-12-6-34-16-48-11-18-13-25-4-23 7 2 14-2 17-8 3-8-31-14-104-19-59-4-112-9-116-12-5-3-82-6-172-7-106-1-161-5-157-11 3-5-2-4-11 4-12 9-21 10-29 3-7-5-47-12-88-16-41-3-69-3-63 0 23 10 13 24-17 24-20 0-30-5-30-15 0-12-15-15-75-15-41 0-75-4-75-9 0-12-103-11-110 0-3 5-52 9-107 10-56 1-100 6-97 10 2 4 0 9-6 11-5 1-7 13-4 26 7 26 48 31 58 6 4-10 13-13 26-9 11 3 25 3 32-2 7-4 22-9 33-10 11-2 22-8 23-13 2-6 8-10 13-10s4 11-1 26c-6 14-10 39-10 55 0 28-2 29-47 29-44 1-47 2-29 15 18 14 18 15 2 15-9 0-14 5-11 10 11 18 35 10 36-12s1-22 9 2c11 35 12 70 1 70-5 0-7-9-4-20 4-15 0-20-16-20-12 0-21 6-21 16 0 8-5 12-10 9-6-4-8-11-5-16 4-5-14-9-39-9-39 0-46 3-46 20 0 15-7 20-26 20-16 0-23-4-18-11 3-6 9-33 11-60 5-48 4-48-24-46-20 1-29 7-29 20 0 20 1 20 27 7 16-9 19-7 19 10 0 12-4 18-10 15-7-4-9 2-4 19 5 23 3 26-19 26-14 0-28-6-30-12-4-10-8-9-16 2-6 8-11 12-12 8-1-5-3-12-4-18-1-5-3-14-4-20 0-5-9-10-18-10s-13-3-9-7 15-8 24-8c10 0 17-8 17-20 0-14 8-21 28-23 18-2 27-9 27-22 0-21 23-33 37-19s24-13 12-32c-6-10-9-10-9-1 0 6-11 12-25 12-18 0-23-4-19-15 5-11-1-15-22-15s-25-3-15-9c19-12-27-41-77-48-34-5-39-2-50 21-7 15-12 37-12 50 0 34-10 38-41 15-16-11-29-17-29-13 0 3-8 0-18-7-16-13-16-13-2 5 8 11 35 29 60 40 44 20 44 21 17 24-17 2-36-3-47-13-17-15-19-14-29 18-21 64-50 80-149 85-74 4-91 1-105-13-16-16-21-14-77 35-33 29-61 47-61 41-1-6-3-15-4-21-1-5-3-14-4-20 0-5-20-11-43-12l-43-1 38-4c20-2 35-8 32-14-4-5 1-9 10-9s13 5 10 10c-3 6-1 10 4 10 17 0 13-15-9-35-11-10-20-31-20-47 0-23-7-32-35-45-25-12-35-23-35-40 0-13 5-23 10-23 7 0 7-6 0-20-8-14-8-20 0-20 6 0 15 12 20 26 12 31 13 44 1 25-5-7-11-9-14-4-8 12 10 39 19 30 12-12 15-79 3-71-7 4-9-10-5-42 5-42 4-45-4-18-7 22-18 33-34 36-14 3-25 2-24-1 4-39-4-51-34-52-32-2-32-2 7-9 22-4 33-8 23-9-18-1-20 13 18-218 13-84 30-180 38-213 9-36 10-62 5-66-5-3-9-2-8 3 5 30-2 35-38 28-21-4-41-12-45-18-5-7-8-2-9 13-2 37 2 55 12 59 6 1 2 9-8 16-14 11-16 16-5 26 8 9 12 9 12 2 0-6 7-19 16-27 8-9 11-16 5-16s-11-9-11-20 5-20 10-20c6 0 10 7 10 15 0 9 6 12 15 9 21-8 20 44-1 75-10 14-14 33-11 51 5 20 2 30-10 34-13 5-14 4-3-9 15-18 7-19-21-5-24 13-36-9-20-38 8-15 7-23-5-33-8-7-13-18-10-25 3-8-2-20-10-29-9-8-13-23-11-33 4-14 6-14 12 6 11 33 28 27 20-8-8-36 2-73 17-64 8 5 9-11 5-54-4-39-3-62 3-62s10-7 10-15 5-15 10-15c6 0 10 9 10 19 0 11-4 23-10 26-5 3-10 11-10 16 0 6 7 4 15-5 17-17 17-76-1-76-6 0-16 10-22 23-7 12-11 15-10 7s-4-26-11-38c-15-28-12-32 25-35 18-2 29-8 29-17 0-8 10-16 23-18 15-2 22 2 22 12 0 9 5 16 11 16 5 0 7-4 4-10-3-5-2-26 4-45 5-19 6-33 1-30-4 3-14-2-21-11-10-12-10-15 2-12 9 2 15-7 17-27 2-16 7-32 12-35 4-3 12-37 17-75 6-51 12-70 23-70 8 0 16-8 18-19 3-13 0-16-9-11-9 6-11 3-6-8 5-13 1-17-15-17-21 0-21 0-2-15 14-11 15-14 4-15-13 0-14-17-12-105 2-58 6-105 9-105s12 8 20 17c13 17 13 16 7-6-4-16-2-22 6-19 6 2 12 8 12 13 0 19 19 45 31 45 7 0 8-3 2-8-15-11-14-52 2-52 7 0 13-5 13-10 0-6-6-10-12-9-27 3-38-1-38-15 0-8-5-18-12-22-8-5-9 0-6 14 4 12 2 25-3 28-18 11-9-53 11-76 11-13 17-26 14-29-6-6-29 21-37 43-3 8-8 7-18-1-11-11-11-13 0-13 8 0 19-7 26-16 15-21-2-64-25-64-13 0-13 1 0 11 12 8 11 10-5 7-14-2-20-11-19-26 1-13-3-21-10-19-6 3-10 10-8 17 2 10 0 11-10 3-11-9-50-21-98-29-8-2-21-12-29-23-13-20-48-31-36-12 3 5 1 12-5 16-5 3-10 2-10-3 0-6-11-13-25-16-38-10-32-37 8-34 17 2 34 5 37 8s28 13 57 22c58 18 67 13 72-36 2-18-1-26-8-22-6 4-11 15-12 24 0 11-5 7-13-11-7-15-15-25-18-21-4 3-11-4-18-15-6-12-8-21-4-21 3 0 3-6-2-13s-2-5 7 4c15 16 17 16 29-2 11-14 16-16 23-6 7 9 10 9 14-1 2-6 9-9 15-6 7 4 7 9 0 13-6 4 17 7 51 8 40 1 55-2 42-7-11-4-30-6-41-3-12 2-25-1-29-8-5-8-4-10 3-5 7 4 28 3 47-3 24-6 33-6 29 1-4 6 2 8 17 4 13-3 18-3 12 0-20 9-15 23 6 21 11 0 17-5 14-11-4-5 1-7 11-3 9 4 14 3 11-2s-1-12 5-16c5-3 10 1 10 9s-4 17-9 20c-10 7-20 86-10 86 11 0 19-29 13-48-5-13-4-14 4-3 5 7 7 32 4 54-4 29-2 38 6 33 7-4 12-1 12 8 0 26-19 28-26 1-3-14-9-25-13-25-16 0-20 14-9 34 16 29 18 66 3 66-7 0-15 9-18 20-4 16-1 19 18 16 21-4 22-2 19 56-1 33-8 65-14 72-5 8-9 24-8 37 3 20-1 24-20 22s-21 1-16 22c4 15 2 25-5 25-6 0-11 7-11 15s3 15 8 15c16 0 34 42 23 53-8 8-11 6-11-7 0-9-7-24-15-33-11-10-14-29-11-64 3-27 0-49-5-49s-10 21-10 48c-1 26-2 61-3 77-1 17 3 35 10 40 7 6 15 19 18 30 3 13 4 11 2-5-2-14-7-34-11-45l-7-20 17 20c12 15 15 30 10 60-4 22-7 58-7 80l-1 40-14-30c-11-23-12-24-7-5 3 14 6 35 6 48 0 41 17 23 23-25 4-27 15-91 25-143s35-194 55-315c36-215 50-270 66-259 5 3 19-1 31-8 13-6 33-14 45-15 11-2 115-35 230-74 258-87 450-151 658-218 88-28 248-80 355-115s251-80 320-101c69-20 157-48 195-61 39-14 88-29 110-34s97-27 166-49c118-38 134-41 243-41 115 0 144 11 69 25-21 4-63 15-93 26-30 10-64 20-75 22-26 5-82 21-235 68-233 71-293 89-307 89-7 0-13 4-13 10 0 5-7 6-17 3-10-4-14-2-10 4s0 14-9 17c-24 9-31 7-14-4 13-9 13-10 0-10-8 0-22 5-30 10-13 9-13 10 0 11 10 0 8 3-5 9-27 12-43 12-25 0 25-16-3-11-86 15-43 14-85 23-92 20s-10-1-7 5c3 5-10 12-30 16-19 3-38 10-41 15s-17 9-31 9c-13 0-71 15-126 34-110 37-261 84-452 141-66 20-142 45-170 55-27 10-66 23-85 29-76 22-145 50-142 58 2 4 10 7 19 5 39-8 233-76 280-99 29-13 71-24 93-25 22 0 40-4 40-9s10-9 23-9c12 0 72-15 132-34 61-19 187-58 280-86 94-28 199-60 234-71s70-18 78-15 12 2 9-3 20-15 52-24c31-8 120-33 197-56 279-84 330-99 350-104 11-3 128-37 261-76l241-71h164c100 0 170 4 179 11 12 8 9 9-12 5-14-3-37-2-50 3-13 6-16 10-8 10 11 1 11 4 2 13-10 10-14 10-21 0-11-18-104 6-97 25 6 15-23 32-43 25-8-2-11 0-8 5 7 11-87 98-106 98-7 0-11 8-9 16 1 9-5 22-13 29-12 10-15 10-15 0s-3-10-15 0c-20 17-19 31 2 23 15-6 14-2-4 20-12 15-20 35-19 44 2 10-5 24-14 33-9 8-9 11-1 5 8-5 16-9 18-7 2 1 22-24 44-57 37-55 113-129 216-209 50-38 66-42 32-6-17 18-19 23-6 18 9-3 25 0 34 7 15 12 16 12 10-3-5-15-2-15 30 3 19 11 38 17 42 14 3-4-2-11-12-16-18-11-23-29-8-29 5 0 16 7 25 15 8 8 23 15 34 15s22 6 25 14c7 16-38 28-73 19-25-7-24-3 12 49 25 37 23 54-12 72-28 14-30 13-30-5 0-12 7-19 18-19 28 0 22-25-6-27-38-2-46-17-30-51 15-28 14-29-11-30-14 0-37-5-51-10-19-7-31-5-52 11-15 11-25 24-22 29 3 4-1 8-8 8-14 0-78 60-78 72 0 13 36 14 48 1 17-18 33-17 26 2-4 10 0 15 11 15 9 0 13 4 10 10-3 5-16 10-27 10s-26 8-33 17c-11 15-15 15-29 4-9-7-16-24-16-38v-24l-24 28c-18 20-22 32-15 45 5 10 5 19 0 23-13 8-24-12-15-27 6-10 5-10-7-1-8 7-25 33-38 58-13 27-27 42-33 38-7-4-9 0-5 9 3 9 1 20-3 24-5 5-10 25-11 44-2 19-7 41-12 48-12 15-2 153 17 239 6 27 12 33 34 33 41 0 56-13 43-37-5-11-7-24-3-29s-1-2-10 5c-12 9-18 10-18 2 0-6-7-11-15-11s-15-7-15-16c0-10 5-12 13-7 6 4 19 8 27 10 22 3 50 41 43 58-3 8 0 15 7 15s9-11 6-31c-4-27-3-29 12-17 9 7 13 8 9 2-4-7 2-14 13-17s18-1 14 4c-3 5 2 9 10 9s18 5 22 12c5 8 2 9-9 5-10-3-17-2-17 3 0 23 148-4 173-31 10-10 23-19 29-19 7 0 3 6-7 14-18 13-17 13 6 11 39-4 40-5 34-15-4-6 5-10 19-10s26 3 26 8c0 4 29 3 65-2 36-6 65-14 65-18 0-16-38-50-49-44-5 4-13 1-16-4-4-6-17-10-28-9-36 2-40 0-27-16 6-8 9-19 5-25-3-5-1-10 5-10s13 6 16 14c6 16 33 11 50-10 6-8 15-9 25-3 11 7 11 9-4 9-10 0-16 4-12 9 3 5 0 13-6 17-8 4-7 9 2 15 24 15 48 10 64-15 18-27 11-76-11-76-7 0-17-8-23-17-5-10-12-15-15-12-11 11 6 40 28 49 14 5 1 8-41 7-34-1-59-5-57-9 3-5 13-7 21-6 9 2 18-3 21-11 3-10-1-12-17-8-11 3-43-3-71-14-28-10-59-19-70-19s-20-4-20-10c0-5-10-10-22-10-23 0-23 0 2 18 15 10 24 24 22 34s1 18 7 18 11 8 10 18c0 10-3 12-6 5-7-18-52-16-59 2-4 8-13 15-21 15s-11-4-8-10-1-7-9-4c-11 4-16 0-16-11 0-9 4-14 9-11 5 4 7-3 4-13-4-15 0-20 16-18 12 1 21 5 21 9s9 8 20 8c12 0 20-7 20-16 0-14-3-14-15-4-8 7-16 10-16 6-1-3-2-10-3-15 0-5-5-13-10-18s-6-2-1 6c5 10 4 12-3 7-9-5-9-13-2-26 9-16 15-17 42-8 61 19 74 20 87 5 15-19-4-34-24-17-8 6-16 7-19 2-3-6 1-12 9-16 8-3 15-13 15-23 0-15 2-16 10-3s11 12 25-5c9-11 14-14 10-7s-2 19 5 27c9 10 7 20-6 40-16 24-16 25 1 18 10-3 27-15 37-25s23-16 28-13c6 4 10-1 10-9 0-9 7-16 15-16s15 5 15 10c0 6 8 10 18 10 11 0 13-3 5-8-7-4-9-13-4-21 7-11 11-10 20 5 10 18 10 18 11-3 0-18 6-23 25-23 17 0 25-6 25-17 0-10 4-14 8-8s19 11 35 13c29 3 36-15 15-36-9-9-8-12 5-12 15 0 16-4 7-20-8-15-19-19-42-17-25 1-33-2-36-18-6-29-22-45-44-45-11 0-29-10-40-22-11-13-17-18-14-11 8 14-10 27-19 14-3-6-12-8-20-5-8 4-13 10-10 14 3 5 1 11-5 15-5 3-10 3-11-2 0-4-3-21-5-38-4-25-2-28 8-15 13 16 48 16 48 0 0-5-12-16-27-24-16-8-22-16-15-17 6-1 18-2 25-3 6-1 21 7 32 18 27 29 79 32 105 8 13-12 18-25 14-35-7-20-18-21-44-7-15 8-18 7-14-4 5-12 46-26 77-26 5 0 7 13 3 32-6 30-6 31 11 11 10-10 26-22 36-26 9-3 17-11 17-16 0-13-33-23-53-16-22 9-28-7-16-48 6-24 16-37 26-37 15 0 15 1-1 13-16 11-14 15 16 42 18 17 30 26 26 21-4-4 4-18 18-31 28-26 30-35 9-35-8 0-20 10-26 22-8 14-14 18-17 10-2-6-8-10-13-6-5 3-9 0-9-6 0-7 7-10 15-6 8 3 20-3 27-13 11-15 26-19 80-18 63 0 66 1 57 21-7 14-19 21-39 21-17 0-30-3-30-7 0-16-28 5-35 25-19 57-14 65 28 46 16-7 23-17 20-29-6-21 6-30 28-21 15 5 14 12-10 61-29 60-52 73-68 38-10-23-10-23-17-2-5 16-13 20-35 16-20-3-35 2-50 17-12 12-27 21-35 21-26 0-26 17-1 30 14 7 25 18 25 25 0 6 10 12 22 12 16 2 19 0 9-6-10-7-10-10-1-16 7-4 15-4 19 1 10 14 31 15 31 2 0-6 3-8 7-5 3 4 12-1 19-11 20-26 17 0-7 53-29 65-40 105-28 105 5 0 9 7 9 15 0 14-24 20-57 16-22-3-14 8 15 23 26 13 29 13 40-5 7-11 18-17 24-13s8 3 5-2c-3-6-1-16 4-24 7-12 10-11 15 7 8 30 31 36 37 11 4-15 0-22-15-26-20-5-20-6 7-28 24-19 27-25 16-38s-11-16 2-16c8 0 17-6 20-14 4-10 0-12-14-9-10 3-19 0-19-6 0-10 14-15 34-12 5 1 13-4 17-11 6-10 15-7 39 11 18 13 38 24 46 25 18 3 31 16 16 16-7 0-12 5-12 11 0 7 14 8 43 4 41-7 42-7 25 12-22 24-23 43-4 43 24 0 27 16 6 40-11 13-20 26-20 30s-9 10-20 13c-13 3-21-1-25-13-6-18-45-35-45-19 0 5 6 9 13 9 6 1 2 6-11 13-12 7-20 16-16 20s14 1 22-5c11-10 16-9 23 4 5 10 17 14 29 11s20 0 20 7-7 10-15 7c-14-6-55 40-55 62 0 6-4 11-10 11-5 0-10 5-10 10 0 6 9 10 20 10s20-7 20-15c0-30 24-66 41-62 9 2 22-4 30-14 17-25 29-24 29 1 0 11 7 20 15 20s15-8 15-19c0-23 25-47 35-31 9 15 25 12 25-5 0-16 9-19 34-9 27 11 18 34-13 34-16 0-35 7-42 17-13 15-11 16 13 10 14-4 33-10 42-13 10-4 16-1 16 9 0 16-20 27-51 27-15 0-19 5-14 19 5 16 0 19-35 19-22 0-42-3-45-9-4-5-13-5-24 1-10 5-21 7-24 3-3-3-13 1-21 10-14 13-13 15 7 21 31 8 87 7 87-1 0-5 20-9 44-11 25-1 55-7 68-12 19-9 18-9-11-4-25 5-32 3-29-7 3-8 13-14 22-14 10 0 27-11 37-24 18-23 21-23 36-8s15 18-2 37c-10 11-13 20-7 20 7 0 12-5 12-11s9-8 20-4c14 4 20 2 20-9 0-8-5-18-10-21-6-4-8-10-5-15 10-16-14-50-34-50-30 0-33-36-4-49 17-8 23-17 19-27-3-9-6-21-6-26 0-6-3-9-6-5-4 3-13-1-21-9-13-12-17-12-36 1-23 16-57 20-57 7 0-4 10-12 23-17 14-6 22-18 21-33-1-21 7-26 33-23 8 1 10-5 7-14-3-8-10-15-14-15-5 0-17-3-27-6-14-5-15-4-4 4s7 14-20 28c-32 16-33 16-20 0 13-15 13-19 1-26s-12-10 2-15c13-5 15-12 8-30-11-29 9-52 29-32 12 12 22 3 35-28 2-6 9-5 17 2 15 15 43 17 34 3-3-6 4-10 17-11 13 0 18-3 12-5-7-3-10-15-8-27 5-22 4-22-5 1-11 22-37 39-47 29-3-3 2-17 11-31 17-25 17-26-1-19-17 6-17 5-5-10 9-11 10-17 2-18-6-1-16-2-22-3-6 0-16-9-23-18-9-12-16-14-23-7-8 8-16 8-30 0-17-10-17-10 2-11 17 0 15-3-9-20l-30-19 242-1h242l-2 537c-1 319-4 497-8 438-4-55-8-137-9-183l-1-84-27 6c-29 6-203 33-408 65-96 14-114 20-90 25 118 29 146 35 157 32 7-1 9-1 4 2-10 5 130 75 154 77 8 0 14 6 12 13-1 7 6 15 15 19 10 4 26 15 35 26 15 17 20 18 35 6 15-11 16-11 6 1-19 20-16 35 3 19 15-12 16-11 9 11-4 14-4 22 0 18 5-5 9-21 10-37 1-25-1-29-22-25-12 2-23 3-23 1 0-10 32-67 41-72 5-4 7-11 4-16-4-5-1-17 5-26 10-16 11-15 7 5-3 12-1 22 4 22s9-7 9-15 5-15 12-15c9 0 9-3 0-12-17-17-15-45 3-52 8-3 15-1 15 4 0 6-5 10-11 10-8 0-8 5 1 15 7 8 10 26 8 40-3 14-1 25 5 25 5 0 7 15 4 34-3 20-1 36 5 38 7 3 7 60-1 188-6 102-14 244-17 315-3 72-7 138-11 149-3 10 1 22 8 26 10 7 10 11 0 24-8 10-11 28-7 46 3 17 1 30-4 30-6 0-10 14-10 30 0 28-2 30-41 30-32 0-40-3-35-15 7-19-8-19-28 0-10 10-24 13-41 9-14-3-24-9-21-11 11-12-25-33-56-33-60 0-79 10-72 36 6 23 4 24-47 24-30 0-220 7-424 15-203 8-541 21-750 30-209 8-453 18-541 21-154 7-162 6-167-12-4-16-5-16-6-2-1 20-55 33-103 25-18-4-58-2-88 3-69 11 226 5 710-15 190-8 602-24 915-35 314-10 639-22 723-25l152-6v442c0 384-2 440-15 436-8-4-17-2-20 3-8 13 6 40 21 40 8 0 14 9 14 20 0 17-7 20-39 20-21 0-52 7-67 15-16 8-38 15-50 15-11 0-30 9-42 20-12 12-22 18-22 15 0-4-7 1-16 9-8 9-21 16-28 16-13 0-36 74-36 115 0 14 6 25 13 25 54 2 154 12 215 21l72 12v63 64h-31c-17 0-28 4-24 10 3 6 17 10 31 10h24v375 375h-334c-258 0-335-3-339-12-4-10-7-10-18 0-16 15-145 17-154 2-3-5-14-10-23-9-14 0-13 2 3 9 11 5-273 9-641 9-625 1-661 0-661-16 0-49-3-57-15-45-10 10-10 17 0 32 7 12 8 21 2 25-5 3-142 5-304 4-242-1-296-4-300-15-7-17-63-19-68-1-4 9-252 13-1186 15l-1182 3v-445zm3019 347c-13-35-14-90-1-106 5-6 13-27 17-45 4-19 11-30 17-26 8 5 9-5 5-29-4-28-2-37 9-37 10 0 14-13 14-46 0-27 4-43 10-39 6 3 10-1 10-10s-4-13-10-10-10-4-10-17c0-18 2-20 10-8s10 9 10-13c0-16 4-26 9-22 5 3 12 1 15-4 4-5 2-12-4-16-5-3-10-20-10-36 0-17 4-28 9-25 14 9 41-5 41-21 0-8 5-11 10-8 6 4 17 2 24-4 10-9 15-7 20 5 4 9 4 19 1 22s-5 0-5-6c0-7-4-12-9-12s-8 16-8 35c1 24 6 35 16 35 11 0 10 4-5 15-16 13-17 16-4 25 10 6 11 10 3 10-7 0-13 7-13 16 0 8 3 13 8 11 4-3 6 34 6 81-2 126 13 134 18 11 6-123 29-201 70-242l30-30 26 27c25 24 27 33 29 123 2 53 5 99 8 101 3 3 5-4 5-16 0-11 5-24 11-28 8-4 8-9 1-13s-8-20-2-46c5-22 7-56 4-75-3-20 1-54 10-79 8-25 13-48 10-53s0-7 7-6c7 2 13-6 13-17s6-26 13-33 13-18 13-23-18 9-40 31c-62 62-132 93-217 95-40 1-73-1-73-4s-20-19-45-36c-24-16-41-34-38-40 4-5 2-7-2-2-5 4-16 0-26-9-16-14-17-6-25 133-13 224-11 483 3 516 7 15 15 27 18 27 2 0 0-12-6-27zm-1529-43c0-5 9-10 20-10 23 0 25-10 8-29-10-11-10-13 0-7 6 4 18 4 25-1 6-4 28-13 47-18 30-9 35-15 35-40 0-28-3-30-70-46-38-9-64-17-57-18 7 0 11-5 8-9-4-7-39-8-88-3-5 1-8 8-8 16 0 9-9 15-21 15-36 0-98 22-115 41-12 14-13 22-4 38 6 12 15 19 19 17 12-8 81 14 81 25 0 6-5 7-12 3s-8-3-4 4 18 12 32 12 22 4 19 10c-4 6 12 10 39 10 25 0 46-4 46-10zm-506-179c4-6 13-8 22-4 9 3 14 0 12-8s5-14 17-14c11 0 22-3 25-7s17-9 30-10c14-2 28-7 32-13 10-13 10-45 1-43-10 2-85-13-97-20-4-2-3-8 4-12 8-5 1-11-19-18-17-6-31-14-31-17 0-10 64-1 73 10 5 6 7 4 4-5-3-11-18-15-53-15-45 0-49 2-47 23 3 20 1 21-17 10-15-10-22-10-32 0-9 9-9 12 0 12 6 0 9 7 6 15-4 8-17 15-30 15-14 0-41 7-60 15-49 20-42 46 16 60 25 7 44 16 43 21-2 13 94 17 101 5zm534-130l2-28-187-37c-217-41-352-66-363-66-4 0-10 9-13 19-6 24 38 48 47 25 8-20 27-18 24 3-2 13 9 20 47 29 64 15 85 16 85 4 0-5-6-10-14-10s-16-6-19-13c-4-10 2-13 19-9 13 2 23 7 22 11-3 30 5 41 30 42 23 2 24 2 5 6-23 4-33 26-10 22 6-1 25 1 40 6 18 5 33 3 40-4 8-8 3-11-18-12-17-1-23-3-13-6 9-2 31 0 50 6 25 7 27 9 11 10-13 1-23 5-23 10 0 10 27 8 52-3 9-4 47-1 85 7 97 21 98 21 101-12zm34-81c3-17 0-30-6-30s-124-22-263-48c-256-49-263-49-263-12 0 18 33 20 45 3 8-10 17-14 21-10 5 4 2 12-6 17-8 6-10 10-4 10 5 0 15-5 22-12 6-6 15-8 19-4s1 11-7 16c-12 8-10 10 7 10s21-4 16-17c-4-11-3-14 5-9 7 4 12 13 12 21s15 17 38 21c20 4 107 21 192 39s158 33 161 34c4 1 9-12 11-29zm2034-32c7-1 11-8 9-17-1-9 4-22 12-29 7-7 14-28 14-45 2-51 6-74 13-86 4-6 2-11-5-11-9 0-9-3 1-14 6-8 11-23 10-33-4-36 0-45 16-39 9 3-3-15-26-41-41-47-42-49-38-110 3-50 1-60-9-51-9 7-13 39-13 101 0 81-3 94-25 123-23 29-25 42-25 126 0 119 6 142 34 133 11-4 26-7 32-7zm-1994-33c4-20 1-25-16-26s-18-2-3-6c9-2 17-8 17-11 0-4 3-16 6-27 4-15 0-21-13-22-10-1-130-18-266-38-137-20-255-34-263-31-20 8-18 46 4 47 10 0 12 3 5 6-14 5-18 43-5 43 5 0 93 15 198 34 360 66 330 63 336 31zm-42-140c0-8 5-15 11-15 5 0 8 4 5 9-4 5 3 7 14 4 35-9 33-23-4-23-33 0-36-3-36-28v-28l-143-27c-79-15-152-27-163-27-35 1 7 17 64 25 59 8 70 23 17 23-19 0-33-3-31-7 3-4-14-7-37-7-31 0-41-4-39-14s0-11-10-2c-8 6-25 9-39 6-17-4-20-3-9 4 8 5 44 15 80 22s85 22 109 33c32 15 46 17 49 9 2-7 11-12 20-12 13 0 14 2 3 9-17 11-4 19 47 27 23 4 42 10 42 15 0 6 17 14 43 18 4 0 7-6 7-14zm2670-204v-58l-61-7c-34-3-79-6-100-6-36 0-38 2-44 38-3 20-8 45-9 54-3 14 7 18 53 23 31 3 63 8 71 9 8 2 32 4 53 5l37 1v-59zm-258-6c-15-24-33-43-41-42s-16-5-18-13c-4-13-3-13 6 0 7 9 11 10 11 3 0-6-10-19-22-27-12-9-17-16-10-16 20 0 30-42 19-75-15-47-29-58-61-45-29 11-57 34-56 47 0 10-39 13-45 3-2-4 7-13 20-20 30-16 32-45 5-60-11-6-18-15-15-21 4-5 11-7 16-4 16 10 98 12 102 2 7-22 90 29 93 56 0 7 2 14 3 17 12 25 7 40-12 41-19 0-18 2 6 11 29 10 37 28 12 28-21 0-19 20 3 21 9 1 20 1 25 0 4 0 7 4 7 9 0 6 9 10 20 10 16 0 20-7 20-35 0-43-51-143-70-137-8 3-10 0-6-7 4-6 4-11-1-10-16 4-63-13-58-21 3-5-4-11-15-15-25-8-169-2-164 6 2 3-8 11-21 17-32 15-57 65-59 121-1 46-1 46 34 49 19 1 65 7 103 13 56 9 67 14 67 30 0 10 5 19 11 19 7 0 8 14 4 39l-7 40 49 4c26 2 53 4 60 5s0-18-15-43zm-2498-36c5-5 4-14-3-23-10-12 5-15 109-21 66-4 120-11 120-15 0-5 9-6 19-3 11 3 103-3 206-12s189-14 193-11c3 3 0 6-6 6-7 0-12 10-12 23s3 17 8 11c4-6 26-15 50-19 43-7 59-25 22-25-11 0-28-5-38-11-19-12-33-11-672 41-135 11-261 20-280 21-31 1-29 2 15 10 28 5 93 8 145 6 52-3 79-2 60 0-60 7-68 14-30 27 35 13 77 11 94-5zm3173-40c7-7 17-8 25-3 7 5 43 9 80 9 59 0 68-2 68-18 0-10-6-20-14-23-10-4-12-14-5-42 5-20 9-44 9-53 0-22-43-39-100-39-38 0-50-4-50-15 0-8 5-14 11-12 16 3 21-40 9-64-15-27-30-24-31 9 0 26-1 26-9 5-5-13-18-23-29-23-15 0-19-6-16-25 1-16-2-24-9-22-6 2-12 23-14 46-2 29 0 41 7 36 6-3 11-1 11 4 0 6 11 11 25 11s25 5 25 11c0 8-19 10-65 6-41-4-64-3-60 3 3 6 18 11 33 11 18 1 21 3 9 6-10 3-16 11-13 18 4 11-2 11-29-1-41-17-45-17-45-4 0 6 11 15 24 22 14 6 28 17 31 26 4 12 3 12-9 3-22-18-26 0-9 39 10 23 17 30 21 21 3-8 0-17-6-19-7-2-12-9-12-14 0-6 3-8 7-5 3 4 15 0 25-10 12-10 18-12 18-4 0 7 4 10 9 6 5-3 12 4 16 15 5 15 12 19 31 14 28-7 32 7 7 31-11 11-26 15-45 11-15-3-28-1-28 4 0 6-9 10-20 10s-20-4-20-8c0-5-7-9-15-9-32 0 10 27 56 36 63 13 83 13 96 0zm-1087-70c0-4 8-10 18-12 9-2 3-3-14 0-25 3-33-1-42-22-11-24-10-25 11-20 18 5 23 2 23-14 0-12-7-21-16-21-13 0-13-1 0-10 9-6 11-10 3-10-25 0-1-26 26-28 21-2 30 3 34 18 7 28 42 26 72-5 38-37 32-46-27-44-29 1-64-3-78-9-20-9-21-11-6-11 40-2 4-14-46-17-29-1-124-5-210-9-154-7-158-8-158-29 0-12 6-28 13-36 10-12 9-12-5-1-10 7-18 22-18 33 0 19-4 20-55 13-78-9-68 1 13 14 92 16 195 23 271 21 40-1 61 2 57 9-4 5-1 13 5 17 7 4 9 3 5-4-3-6-3-13 2-16 4-2 9 4 9 15 1 10-2 19-8 19-5 0-9 5-9 10 0 6 7 10 16 10 13 0 14 3 5 14s-9 15 1 19c8 3 5 6-7 7l-20 1 20 8c14 6 25 3 36-10 9-10 20-14 28-10 9 6 9 11-3 20-8 7-12 19-9 27 4 11 0 14-18 11-13-2-18-2-11 0 6 3 12 11 12 19 0 10-14 14-52 15-29 1-42 4-28 6 14 3 28 8 32 11 10 10 128 10 128 1zm-593-270c2-22 2-22-6-4-7 15-10 6-10-35-1-31-7-62-13-69-11-10-10-15 4-25s16-19 9-42c-14-47-41-104-49-105-4 0-20-2-37-4-80-8-141-19-152-27-6-5-54-10-105-11l-93-2-2 35c-1 19 0 29 3 23 3-7 14-13 25-13 15 0 19 7 19 34 0 30-2 33-25 28-16-3-27 1-31 11-3 9-13 13-26 9-13-3-24 1-30 12-11 20-29 21-22 1 4-8 20-19 38-24l31-9-34-1-34-1 6-50c4-29 2-50-3-50-16 0-34 116-19 125 5 4 5 14-2 26-8 16-7 29 5 54 9 18 16 38 16 43 0 6 4 12 9 14 4 2 11 13 15 25 6 20 3 22-36 25-24 2 0 5 52 6s154 6 225 12c72 5 147 10 168 10h37l2-57 2-58 3 57c3 43 8 58 21 61 28 7 37 2 39-24zm-761-280c0-33 4-44 17-44 8 0 19-4 23-8s-2-7-14-7c-26 0-27-3-17-105 1-11 12-22 26-26 24-7 24-7-3-8-16-1-28-6-28-11 0-6 12-10 28-10 15 0 70-3 122-5 52-3 170-7 263-11 105-3 167-10 167-16 0-7-14-8-37-4-21 3-134 6-251 6s-211 4-208 8c2 4-13 8-35 8h-39v-63c0-35-3-63-8-63-13 0-34 59-30 87l3 28-175 5-175 6 155 3c85 2 166 7 180 11s18 9 10 9c-13 1-13 2 0 11 10 6 11 10 3 10-7 0-13 12-13 26 0 17 4 23 13 18 9-6 9-4-1 8-7 9-12 22-11 30 5 41 0 46-46 40-27-3-45-1-45 6 0 5 6 10 13 9 6 0 30 1 52 1l40 2-4 51c-2 40 0 50 10 47 9-3 14-21 15-49zm2187-103c57-4 300-9 365-6 6 0 12 7 12 14 0 12 6 13 32 4 24-9 33-8 36 0 3 9 9 8 23-1 14-10 34-12 80-5 33 4 65 6 70 3s17-2 27 4c23 12 39 2 43-28 3-15 14-27 29-32 24-9 24-8 6 6-19 15-19 15 1 15 12 0 25-5 29-11 10-18-16-28-48-18-25 7-30 5-38-17-6-14-9-28-8-32s-2-18-6-32l-7-26-127 4c-70 3-136 8-147 13-17 7-17 8-2 8 10 1 17 9 17 21 0 22 1 21-49 24-19 1-36 7-39 14-4 14 7 15 27 3 19-12 41-3 41 16 0 12 3 13 14 3 12-9 15-8 13 8 0 12-6 18-14 15-7-3-13 1-13 8 0 9-3 10-8 4-8-12-73-15-66-3 3 4 0 8-5 8-11 0-15-15-11-35 1-5-4-5-11 2-6 6-18 9-25 6-8-3-14-1-14 5 0 7-52 10-144 10-80 0-149 3-154 6s-9-2-8-12c1-11-7-18-24-19l-25-2 25 8 25 8-27 8c-15 4-66 5-112 4-46-2-79 0-73 4 7 5-1 7-18 6-16 0-34 0-40 2-5 2 51 6 125 9l135 5 5 45 4 45 4-41 3-41 72-7zm-923 3c0-17 4-19 23-13 12 3 24 11 25 15 2 5 8 6 13 3 6-3 3-11-7-18-16-12-16-13 0-19 12-5 20 0 26 16l9 22v-22c1-13-5-23-11-23-9 0-8-4 2-10 11-7 4-8-22-4-28 4-38 2-38-8-1-8-8-4-19 9l-18 22-23-22c-18-18-22-19-17-4 4 9 2 17-3 17-6 0-10-5-10-11s-9-9-20-6-18 1-15-4-11-9-32-8c-21 0-54-2-73-3-19-2-35 2-35 7-1 19-20 40-40 43-28 4-127 4-145 0-8-2-21-7-27-11-7-5-17-5-23-2-5 3-10-1-10-11 0-15 12-16 114-12 93 3 113 2 109-9-4-10-23-13-67-12-33 1-72-1-85-6-16-5-21-4-17 4 4 6 1 11-6 11-22-1-48-26-48-48 0-19-7-21-89-24l-90-3-4 28c-2 15 0 27 4 27s9 12 11 27c4 34 26 40 80 22 28-9 44-9 60-1 21 10 19 11-17 12-22 1-49 5-60 9-27 11 147 21 325 20 137-2 144-5 33-21-17-2-16-4 4-28 21-24 33-26 33-4 0 8 5 12 11 8 6-3 14-2 18 4 7 12 58 24 116 27 43 3 59 21 23 28-20 4-20 4 5 6 21 1 27-3 27-20zm-2491-69c4 0 13 6 20 13 11 10 13 10 7 0-5-9 0-13 13-13 12 0 21 5 21 10 0 6 38 10 95 10 107 0 95 10 114-99l9-54-91 7c-49 3-117 6-149 6-33 0-57 4-54 9s1 34-5 65c-5 31-7 62-2 69 5 9 8 7 11-5 2-10 7-18 11-18zm2512-90c5 0 9 8 9 18 0 13 2 14 9 3s69-16 302-23c161-4 295-11 298-14 5-5-434 2-724 11-55 2-190 4-300 6-146 2-177 4-115 8 83 6 388 5 463-2 28-2 37 1 38 13 1 11 2 11 6-2 2-10 9-18 14-18zm-1716-89c209-10 355-19 324-20-66-1-45 14-354-252-298-255-331-286-324-294 4-3 14 1 23 10 24 25 19 5-6-22-22-24-44-29-66-15-13 9-16 31-52 362-10 102-22 200-26 218l-6 32 53-1c30 0 225-9 434-18zm543-28c-78-3-88-6-88-22 0-27 22-32 130-34 70-1 78-2 32-4-40-3-60-8-56-14 4-7-1-7-15 0-18 10-20 9-14-6 6-16 4-16-15 1-12 11-25 16-29 13-3-4-1-7 5-7s9-7 5-16c-5-14-8-12-19 7l-13 24 1-27c2-26 6-28 43-28 56 0 148-28 139-42-5-7-2-9 9-5 36 14 25-14-19-47-49-38-43-51 6-16 18 13 31 16 35 10 9-15-5-32-22-26-9 4-21 2-27-3s-22-9-36-10c-53-1-59-4-57-30 1-17-4-27-15-29-10-2-18 1-18 7s6 8 13 5c8-3 14 2 14 11 0 19-24 20-43 1-10-11-11-15-1-19 9-3 9-7-1-19-10-13-10-17 3-22 9-3 15 0 15 9s9 13 28 11c15-1 42 6 60 16s41 18 52 18c21 0 27-24 10-35-6-4-7 1-4 12 6 15 4 15-9-2-16-20-13-40 4-30 5 4 9 0 9-7 1-7 7-2 14 11 8 15 16 20 20 12 4-6 3-11-1-11-5 0-13-10-18-22-6-15-17-22-29-20-13 3-17-1-13-11 3-8 0-21-6-28-12-14 18 6 39 26 36 34 65 120 52 154-5 14-12 35-14 45-3 19-3 19 14 3 22-23 22-100-1-148-41-84-212-217-286-224-21-2-70-13-107-24-38-11-87-23-109-27-54-9-65-17-35-26 25-7-52-1-100 8-20 4-22 2-10-7s10-10-10-5c-14 3-36 6-50 7-23 0-23 1-5 9 23 10 22 10-25 17-19 2-39 11-43 19-5 8-13 11-19 8-7-5-8-2-3 6s4 11-3 6c-5-3-25 6-44 21-33 28-33 28-17 3 8-14 40-38 70-53 30-16 43-26 29-23s-60 11-104 18c-61 9-73 14-56 20 15 5 28 4 38-4 13-12 14-11 2 9-13 20-16 21-47 8-30-13-70-12-113 1-9 3 1 12 26 23 23 11 49 29 58 42 11 16 16 19 17 9 0-11 2-11 6-2 2 6 10 9 15 6 7-4 8-2 4 5-4 6-1 18 7 26 13 13 15 9 11-28l-3-42 9 44c5 24 7 48 3 54s-1 7 7 2c10-6 12-4 7 8-4 10-2 16 5 14 6-1 13 4 16 12 3 9 0 11-9 6-8-5-5 1 5 13 21 24 40 29 33 10-2-7-11-11-18-10-8 2-11 0-6-4 4-4 18-9 30-10 12-2 16 0 9 2-8 4 4 22 34 50 25 24 50 41 56 38 7-4 8-2 4 4-4 7-2 12 3 12 6 0 11 5 11 10 0 14-36-7-79-45-28-25-31-26-20-7 35 58 245 168 368 193 47 10 58 16 50 25-6 7-8 18-4 24 3 5 1 10-5 10-7 0-9 8-5 20 5 15 3 18-8 14-8-3-17 2-20 11-5 12-1 14 21 9 15-4 29-10 32-13s30-4 60-1c33 3 50 8 43 13s-13 15-13 23c0 11 19 14 103 12l102-2-87-3zm1061-203c90-25 126-43 169-84 55-51 75-99 68-165-7-76-8-80-19-78-5 1-12-4-15-12-3-9 0-11 8-6 9 6 9 2-1-16-20-39-108-127-160-160-57-36-169-84-220-93l-34-6 35 13c35 14 43 28 19 36-7 2-9-1-5-8 7-10-12-15-51-14-7 1-11-3-8-7 2-4-12-10-32-13-23-4-40-2-44 5-4 6-12 7-18 4-6-4-9-11-6-15 2-5-18-9-46-10-28 0-54-3-59-6-11-7-170 16-170 25 0 4-13 5-30 2-24-3-30-1-30 13s-3 15-15 5c-11-9-26-9-62-1-26 6-61 13-78 14-16 2-169 28-340 57-286 50-306 55-255 62 30 3 69 8 85 10 17 2 51 14 77 26s51 22 57 22c5 0 16 6 23 14 8 7 40 26 71 40 31 15 59 31 62 35 2 5 16 7 30 6 14-2 23 1 19 6-3 5-10 6-16 3-7-4-8-2-4 4 4 7 16 12 28 12 13 0 18 5 15 14-7 18 15 27 34 14 11-7 9-8-6-4-14 4-11-2 12-21 24-21 32-35 29-55-2-15 1-25 5-22 5 3 9-16 9-41s7-60 16-76c21-42 26-32 9 16-8 22-14 56-15 75 0 20-6 42-12 49-11 10-10 11 5 6 19-8 20-5 11 19-3 9-10 13-15 10s-9 2-9 12c0 13 3 14 13 5 8-6 17-8 21-4s4 0 0-10c-11-29 4-19 20 13 9 20 10 28 3 24-7-3 1 5 18 19 16 14 34 23 39 20 5-4 6-2 3 4-13 21 78 98 165 141 48 24 95 45 105 47 10 1 45 10 78 18 89 23 100 24 225 26 89 1 133-4 189-19zm1276-69c174-46 285-102 370-185 58-57 100-114 91-123-3-3-8 2-12 11-3 9-13 16-20 16-8 0-17 8-21 18-8 22-98 112-112 112-6 0-11 3-11 8 0 13-115 72-191 97-121 41-232 59-374 58-232-1-407-52-544-158-24-19-48-35-53-35-4 0-8-8-8-18 0-9-12-25-26-33-15-9-22-19-17-22 9-6 29 10 59 45 35 42 137 112 204 141 19 8 73 26 120 38 74 21 108 23 265 24 167 0 187-2 280-29 128-36 242-95 313-163 31-30 58-49 60-43 4 12 22 3 22-11 0-6-4-7-10-4-5 3-10-1-10-9 0-9 5-16 10-16 6 0 10-7 10-16 0-12-7-8-22 12-131 175-384 279-663 273-60-2-144-9-185-16-86-15-171-43-164-54 2-4 0-10-6-14-5-3-10-1-10 4 0 6-4 11-10 11-5 0-10-7-10-16 0-8-4-12-10-9-5 3-28-5-50-18-30-18-37-26-28-35s9-12 0-12c-7 0-12-9-12-20 0-27-21-70-31-64-5 3-9 1-9-4 0-10 35-22 60-21 8 1 4 5-10 10-23 8-23 8 5 5 17-3 39-8 50-12 19-7 19-7 3 9-9 9-21 17-27 17-16 0-13 18 7 40 19 21 69 17 74-5 2-11 7-11 22 1 17 12 18 14 3 14-9 0-17 5-17 11 0 7 14 10 35 7 38-4 47 7 15 17-13 4-31 0-45-9-21-14-25-14-25-2 0 8 10 16 23 18 12 2 21 9 20 16-4 17 12 15 27-3 7-8 18-15 24-15s4 4-4 10c-8 5-11 12-7 17 12 12 24-16 19-43-3-18-10-24-22-21-9 2-22-4-29-15-13-20-7-38 12-38 8 0 8 3-2 9-9 6-4 10 18 13s35 0 41-11c8-14 9-14 15 2 6 13 20 17 69 19 53 1 55 2 16 5-47 5-66 19-49 40 6 7 9 16 6 20-2 4-1 17 4 28 6 16 8 14 8-12 1-31 3-33 39-34 20-1 44 0 51 1 11 1 12-2 5-12-6-7-9-19-8-25 1-7 2-17 3-23 0-5 8-10 16-10s15-7 15-16 8-14 18-13c41 4 72-2 86-17 9-8 16-11 16-5 0 5-5 13-10 16-17 10-1 25 28 25 41 0 59 15 43 34-11 13-11 16 1 16 11 0 15-10 14-32 0-24 4-34 17-36 9-2 17 1 17 7s10 11 22 11c22 0 22 0-2-17-14-9-26-17-28-19-2-1 3-11 10-23 13-21 48-29 48-11 0 14 38 50 53 50 7-1 4-6-6-14-15-12-16-18-8-35 13-24 43-34 94-33 21 1 37-3 37-9 0-8 5-7 15 1 9 7 19 10 23 6s-1-14-11-21c-12-9-14-15-7-20 6-4 16-3 23 2s26 6 42 2l30-7-32-1c-18 0-33-5-33-11 0-5 34-7 85-3 53 4 85 2 85-4 0-5 14-8 30-5 18 3 30 0 30-7 0-6-7-11-15-11s-15-4-15-10c0-5 6-10 14-10 19 0 40-26 26-35-5-3-10 1-10 9 0 10-9 16-22 16-21-1-21-2-5-11 12-7 16-17 12-30-4-12-2-19 6-19 22 0 49 32 49 59 0 20-2 23-10 11-7-12-10-12-16 4-5 12-2 23 9 31 20 14 23 55 5 55-9 0-9 3 1 9 9 6 20 4 30-7 12-11 13-16 3-20-6-2-12-12-12-22s-6-21-12-24c-7-3 2-3 20 0 24 4 32 2 32-10 0-8-8-20-17-25-11-6-13-11-5-11 16 0 6-48-16-73-8-9-13-20-10-23s15 7 27 22c11 15 21 22 21 17 0-18-56-88-100-126-80-68-272-146-329-132-20 4-23 3-11-5 12-9 6-10-25-7-22 2-48 7-57 11-11 5-18 4-18-2s16-14 35-18c20-3 34-9 31-11-3-3-65 4-138 15-73 12-232 36-353 54-204 30-241 39-229 60 3 4-3 5-12 1-11-4-15-3-10 5 3 6-3 16-15 22-17 9-20 9-14 0 5-8 3-11-6-8-8 3-14 10-14 16s-7 17-15 24c-12 11-12 11-1-4 7-10 9-18 4-18-12 0-45 35-38 41 2 3-13 23-33 45s-31 33-24 24c19-26 14-35-10-15-13 10 10-15 50-54 41-40 87-77 103-83 17-6 28-12 26-15-4-4-298 37-305 43-2 1 1 12 8 23 6 13 7 21 1 21-5 0-13-9-16-20-5-15-15-20-38-19-30 1-30 1-7 8 22 6 19 8-20 14-104 17-116 18-95 7 24-12-18-7-214 24l-135 21 96 27c132 37 259 99 315 155 10 10 33 30 52 46 18 15 30 27 26 27-3 0-1 9 5 20s15 18 21 14c5-3 17 0 25 7 19 16 31 1 40-51 4-19 11-42 15-50 6-10 7-6 3 12-4 20-1 29 15 38 19 10 21 8 21-25 0-37 13-47 24-18 4 9 1 20-6 24-9 6-8 10 6 15 16 6 17 8 2 16-9 5-25 6-36 3-12-4-20-2-20 5 0 6-5 8-11 4-9-5-10 1-5 22 9 35 21 50 30 35 4-6 2-11-3-11-6 0-11-5-11-11 0-5 4-7 10-4s7-1 4-9c-3-9-2-16 4-16 17 0 22 43 7 60-13 14-11 21 18 55 52 64 57 68 152 125 58 34 214 86 300 100 104 16 368 5 460-19zm-3226-400c20-5 112-24 204-42l168-33-49-50c-45-47-97-102-240-256-29-30-52-58-52-62 0-12 13-9 34 7 22 17 40 20 32 6-4-5 2-7 12-4 10 2 34 0 53-5l34-9-37-18c-20-10-35-22-32-27 3-4 0-8-5-8-6 0-11 4-11 8 0 10-96 35-108 28-10-6-27 118-42 294-6 63-12 140-15 170-4 46-3 51 6 32 7-13 27-26 48-31zm810-167c2-2-2-10-9-19-10-12-10-15 3-15 9 0 20 7 25 16 9 16 21 16 82 0 8-3 16-5 18-5 2-1-10-12-26-26-31-26-66-33-77-15-4 6-11 7-17 4-7-4-8-2-4 4 4 7 3 12-3 12-5 0-16 3-24 6-12 4-14 0-10-15 3-13 1-21-6-21s-9-5-6-10c4-6 11-8 16-5 5 4 5-3 0-17-7-17-15-22-35-20-18 2-26-2-26-13 0-8-3-15-7-15-5 0-16-11-25-24-16-22-16-25-2-30 12-5 15-2 10 10-4 12-2 15 9 10 10-4 15 1 15 14 0 22 15 27 23 8 6-17 70-17 73 0 1 7 0 8-3 2-7-16-23-1-16 16 10 28 74 52 111 42 20-5 30-13 26-20-8-13 45-2 60 12 5 5 1 7-10 4-10-3-27 1-36 8-14 11-15 16-4 30 7 9 23 19 37 22 13 3 35 8 49 11 17 5 21 4 11-3-11-8-11-11 0-18 7-4 14-3 17 4 2 7 13 12 23 12 11 0 17-4 14-10-3-5-1-10 4-10 7 0 7-7-1-20-7-11-22-20-33-20-12 0-26-5-31-10-26-26-81-46-107-39-15 4-27 3-27-2s-12-14-27-20c-22-8-24-12-13-19 10-6 20-4 31 6 8 8 18 11 22 8 9-10-4-34-18-34-8 0-17-5-21-11-4-7 0-9 13-5 14 4 19 1 20-13 1-16-4-19-28-16-16 2-29-1-29-6s-7-9-15-9-15 5-15 11c0 8-5 8-15-1-8-7-13-15-11-19 2-3-22-8-54-9-60-3-106 11-95 29 4 5 11 6 17 3 7-4 8-2 4 4-5 8 1 12 14 12 12 0 18 5 15 10-10 16-20 12-59-25-34-32-35-35-17-45 52-27 229-4 349 47 53 22 65 24 73 12 8-13 11-6 8 17-2 14 26 23 33 11 8-12 8-12 12 26 0 6 11 13 24 15 14 2 20 8 16 15s-4 9 0 6c4-4 27 14 51 40 24 25 47 42 51 38 9-8-46-68-56-62-4 3-20-13-35-35s-31-37-36-34c-12 7-11-3 2-28 7-14 8-18 0-14-6 4-17-16-27-51-22-73-24-84-14-78 4 3 10-10 13-28 3-21 0-35-9-40-23-13-16-28 10-21 16 4 27 1 33-11 7-12 15-14 34-6 13 5 18 10 11 10-10 1-10 4 0 15 7 8 15 14 18 14 19-1 30 3 30 12 0 14-54 12-68-2-9-9-12-9-12 1 0 7-4 10-9 7-4-3-13 6-19 19-7 15-8 26-2 30s10 19 10 34c0 41 25 97 35 80 5-7 4-14-2-16s-8-13-5-25c3-14 1-19-6-14-8 5-12 0-12-13 0-32 15-25 27 12 21 60 25 78 16 76-4-1-15-1-23 0-13 1-13 3-1 10 8 5 19 7 25 5 7-3 22 5 34 16 22 21 32 14 11-7-13-13-4-33 14-33 7 0 6 4-3 10-8 5-10 10-3 10 6 0 10 13 9 29-2 26 12 36 29 19 11-10 45 4 45 19 0 8 5 11 12 7s8-3 4 5c-4 6-12 8-18 5-8-5-9-1-5 10 4 10 7 24 7 32 0 10 9 13 33 10 17-2 40-4 50-5 9 0 17-5 17-11s-9-6-23-1c-15 6-26 4-35-5-22-23-14-37 18-31 23 5 28 3 23-8-4-11-1-13 13-8 13 5 15 3 9-7-5-9-4-11 4-6 9 6 9 11 0 22-9 12-6 14 21 14 29 0 31-2 19-16-11-13-11-15 2-13 18 3 49-11 49-22 0-4 11-19 24-33 24-27 50-33 61-15 4 6 12 8 19 6 6-2 35-1 64 3 48 6 66 0 42-15-6-4-5-13 2-25 13-20 55-22 76-3 14 14 16 27 3 18-5-3-13 0-16 6-5 7 1 9 16 7 13-2 23-9 21-16-2-9 4-11 18-7 11 3 20 2 20-4 0-5-10-12-22-14-21-4-20-4 3-6 21-1 28 5 33 24 4 14 5 29 2 33s4 9 15 9c17 2 18-1 9-13-10-11-10-14-1-14 8 0 7-6-3-16-9-8-14-19-11-24 3-4-17-11-43-15-26-3-57-13-69-21-25-16-50-18-55-5-1 5-23 11-48 14s-58 8-75 11c-16 3-24 3-17 0 17-8 15-27-3-20-9 3-15 0-15-9 0-7-4-16-9-19-5-4-7 4-3 16 4 17 2 20-12 15-10-4-22-7-27-7-6 0-7-4-4-10 7-11-64-43-82-36-17 7-29-14-13-24 8-5 7-9-5-13-9-4-14-3-11 2 6 9-35 24-42 16-3-3 0-11 7-18 16-20 3-51-15-37-10 9-11 7-1-14 8-16 14-21 19-13 5 7 8 3 8-12 0-17 4-21 15-17 8 3 22 9 32 13s14 3 10-5c-4-6-20-13-35-17-15-3-38-15-52-26-14-10-18-17-9-14 9 4 19 0 22-8 4-10-2-12-23-9-15 2-31-1-34-7-10-15-36-2-29 15 3 8 11 14 19 14s14 4 14 9c0 18-21 23-37 9-15-12-15-11-4 10 8 16 9 22 0 22-6 0-13-9-16-20-4-16-7-17-19-5-16 16-19 29-4 20 6-4 10 7 10 25 0 21-4 30-12 27-7-2-12-10-10-16 1-6-2-11-7-11-4 0-6-11-3-25 2-15 0-25-7-25-6 0-10-5-9-12 4-19 22-36 33-31 6 2 2-2-8-10-12-10-14-17-8-22 6-3 11-2 11 4s7 8 15 5c8-4 13-10 10-14-3-5-1-12 5-15 6-4 9-1 8 7-2 7 4 11 12 9 27-6 83-2 89 7 3 5 17 13 31 17 23 7 23 6-7-23-37-34-39-38-19-45 10-4 13-1 9 9-7 19 23 18 61-1 15-8 42-15 58-15 27 0 29 2 17 18-7 9 0 6 16-8 57-47 105-64 120-40 3 6 21 10 38 10 42 0 66 33 42 57-15 14-17 14-30-3-13-18-14-18-15-1 0 9 4 17 10 17 5 0 12 11 16 25 3 14 13 25 21 25s11 5 7 12-3 8 5 4c9-6 9-11 0-22-13-16-5-18 21-4 13 7 21 6 30-5 7-8 16-12 21-9s9-2 9-11c0-17-46-39-62-29-6 4-9 1-6-7s-2-20-11-27c-14-11-12-11 7-2 13 6 30 9 39 6 18-7 93 11 92 22-4 23 2 52 11 52 5 0 7-8 4-17-4-12 0-10 14 6 11 13 24 21 31 17 6-4 11-3 11 3 0 15-21 25-29 13-4-7-12-8-21-2-12 8-12 10 3 16 9 3 24 4 32 0 9-3 15 0 15 9 0 7 5 17 12 21 8 5 9 0 6-14-7-27-3-27 22-2 24 24 26 34 4 26-15-6-15-4-3 11s12 16-3 10c-11-4-21 0-26 9-12 22-16 22-36 2-10-10-14-23-10-30 5-9 2-8-10 1-12 10-14 16-5 21 19 12 5 33-25 36-16 2-34 8-40 14-8 8-3 10 18 6 16-3 37 1 50 9 12 8 31 12 45 8l25-6-25-11-24-10 29-4c16-2 33 1 39 7 8 8 7 11-2 11-18 0-5 17 19 23 17 4 18 2 9-14-8-16-6-19 11-19 11 0 20-4 20-10 0-5 4-10 9-10s7 9 4 20-10 20-16 20-8 3-5 6c4 3 20-2 37-11 35-18 35-18-26-111-72-108-219-186-398-209-27-3-51-8-53-10s22-9 52-16c53-12 58-11 103 13 36 19 59 25 91 22 24-2 41 0 38 5-3 4 6 13 21 20 42 19 143 103 143 119 0 9 6 12 16 8 8-3 12-2 9 4-7 12 12 50 25 50 5 0 7-8 4-18-5-14-4-14 4-2 8 10 7 18-1 28-9 11-7 17 8 28s21 11 27 1c6-9 10-9 16 1 6 8 9-1 9-25 0-21-2-28-4-15-2 12-7 22-11 23-4 0-16 2-27 4-19 4-19 3 2-13 12-9 23-28 25-41 2-14 11-25 21-27 14-2 17 4 15 34-3 60 2 136 8 129 4-4 6-47 5-97-2-78 1-97 24-149 15-33 24-65 19-72-4-8-3-10 4-5 12 7 45-47 35-58-8-8 27-47 38-41 4 3 11 0 15-6 4-8 3-9-4-5s-12 3-12-1c0-10 65-74 118-116 33-27 59-36 47-17-3 6 1 7 10 4 9-4 13-10 8-15-6-6-134 25-303 71-295 80-333 91-293 87 27-3 76 63 62 84-7 11-9 9-9-7 0-28-38-60-80-69-23-4-30-3-22 3 11 7 6 12-19 21-45 15-60 12-24-5 36-18 23-15-125 25-106 30-138 41-114 41 5 0 10 9 10 20 0 22-7 25-23 9-10-10-75 3-188 38-61 20-61 19-46 36 9 12 7 13-14 9-14-2-22-8-19-13s-10-6-28-2-45 8-60 8c-14 0-24 3-22 6s-15 23-38 45c-39 36-40 37-24 9 10-16 25-36 34-42 9-7 13-13 9-13s-114 31-246 70c-132 38-243 70-246 70s-5 3-5 8c0 4 30 13 68 20 140 26 383 176 382 237 0 5-13-4-28-21-94-106-254-187-419-213-58-9-69-7-190 31-112 35-152 56-153 80 0 3 6 8 13 10 11 2 9 8-6 23-19 20-19 20-12-5 4-14 4-21-1-17-4 4-7 44-5 88 2 62 0 79-10 73-8-4-10-3-5 5 4 6 11 9 16 6s19 17 31 45c12 27 23 50 26 50 2 0 12-8 21-17 16-16 16-16 0-10-26 9-49-43-54-117-3-58-3-59 5-13 4 27 13 52 20 56 7 5 11 17 9 27-2 12 5 22 20 29 12 5 22 13 22 17 0 5 5 8 10 8 6 0 10-8 8-17-4-23 32-30 44-9 5 9 13 14 19 11 5-4 9-1 9 4 0 14 36 14 62 0 13-7 24-7 30-1s-6 12-31 16c-23 3-41 11-41 17s6 9 13 6c6-2 27 2 45 10 28 12 32 11 32-2 0-9-4-13-10-10-15 9-12-4 4-21 21-21 42-19 25 3-13 15-11 16 16 10s28-5 8 5c-21 10-22 12-5 24 15 11 14 14-18 28l-35 16 45-6c25-3 62-10 83-15 44-12 60-5 52 22-6 17-3 19 22 13 15-4 30-8 32-10zm865-349c10-4 34-8 54-9 22-1 37-7 40-16 5-13 3-13-12-1-9 8-19 11-23 7-3-3-2-6 4-6s14-7 17-16c4-11 2-15-8-11-16 6-30-19-20-35 4-6 1-14-5-18-9-5-8-11 4-24 23-23 37-20 23 5-13 21-4 34 18 29 4-1 11 4 16 12 6 9 7 6 3-9-4-16 0-26 20-39 29-19 44-12 25 11-7 9-8 15-2 15 5 0 15-14 21-31 14-40 14-52 1-44-6 4-8 11-5 16 4 5 2 9-3 9-6 0-13-7-16-15-5-13-10-14-27-5-14 8-24 9-31 2-14-14 0-35 18-28 8 3 14 1 14-4 0-6-2-10-4-10s-12-3-22-7c-12-4-15-3-10 5s-1 12-16 13c-13 0-17 3-10 6 21 8 13 19-18 21-20 2-33-3-36-13-4-8-10-15-14-15s-1 20 7 44c11 33 12 49 4 63-10 17-10 17-11 1 0-10-4-18-10-18-5 0-7 7-3 16 6 16-12 34-34 34-7 0-13-8-13-17 0-15-2-15-9-4-5 8-7 21-3 29 4 11 1 14-11 9-9-3-17-2-17 3 0 6 10 10 23 11 12 0 16 3 10 6-7 2-13 9-13 14 0 6 5 7 10 4 6-3 10 0 10 9 0 15 28 15 64 1zm1210-117c-7-11 4-10 27 2 13 7 19 7 19 0 0-5-5-10-11-10-8 0-8-5 1-15 7-8 19-15 27-15 9 0 13-6 9-15-3-8-1-15 4-15 6 0 10 7 10 15s5 15 11 15c5 0 7-5 4-10-10-16 5-50 21-50 8 0 14 5 14 10 0 6-7 10-16 10-27 0-10 23 27 36 28 9 30 12 14 16-11 3-8 4 7 2s30 1 33 6c3 6 12 10 18 10 7 0 6-4-3-10-19-12-7-22 24-22 14 0 31-7 38-16 11-12 5-22-36-57l-48-43-34 19c-19 10-34 17-34 14s-15 4-32 15c-34 21-64 28-38 9 12-9 10-10-9-5-18 4-21 2-12-7 13-13 15-27 2-27-4 0-16 21-25 48-9 26-23 58-30 72-11 23-11 26 5 26 10 0 15-4 13-8z"/>
  <path d="m2236 1768c4-6-1-17-11-25-18-12-17-13 6-13 17 0 20-3 10-9-9-6-10-11-2-15 6-4 9-12 5-17-9-15-11-69-3-69 10 0 30 26 23 32-2 3 2 8 10 11 11 4 13 1 9-11-6-15-5-15 10-3 9 7 14 18 10 25-4 8-3 8 6 0 13-12 51-7 51 6 0 5 9 11 19 15 11 3 22 13 25 21 3 9 2 12-5 9-6-4-9 1-7 11 2 15-6 21-45 28-32 6-51 6-55-1-4-5-17-12-29-15-16-4-20-2-16 8 3 8 9 12 13 9 5-3 11-1 15 5s-5 10-20 10c-17 0-24-4-19-12z"/>
  <path d="m2091 1761c-11-7-11-9 0-14 10-4 9-6-3-6-10-1-18 3-18 9 0 5-7 7-16 3-12-4-12-8-4-13s1-10-18-15c-18-3-36-4-42 0s-9 1-8-6c2-7-13-16-34-22-25-6-38-15-38-25 0-15-2-15-10-2-6 10-10 11-10 3 0-7-7-13-15-13s-15-9-15-20c0-18 26-27 63-21 4 0 6-4 5-10-2-6 3-14 11-17 8-2 11 0 7 6-3 6-2 14 4 17 6 4 10 3 9-2-3-20 2-25 16-13 10 9 15 9 15 1 0-6 5-11 11-11 5 0 7 5 4 10-3 6 4 10 17 10 19 0 20-2 8-11-13-9-12-10 3-5 9 3 24 9 32 12 10 4 15 0 15-14 0-18 18-32 41-32 5 0 9 9 9 21 0 11-4 17-10 14-5-3-10-2-10 4 0 17 22 24 31 10 6-10 9-10 9-2 0 7 6 11 13 10 6-2 2 1-10 7-26 11-30 26-8 26 8 0 15-4 15-10 0-5 9-10 20-10s20 5 20 10c0 6-7 10-15 10-13 0-14 2-3 14 7 8 17 12 21 9 5-3 4 4-2 14-6 11-7 23-4 27 3 3 1 6-6 6s-9 5-6 10c8 13-5 13-25 0-12-8-12-10-1-10 8 0 12-3 8-6-3-4-17 2-30 13-23 17-23 20-9 31 15 10 15 11-3 11-11 0-26-3-34-8z"/>
  <path d="m3085 1700c-35-4-14-6 70-7 210-2 339-53 394-157 12-21 12-29 2-39-10-9-11-8-6 6 4 10 2 17-5 17-6 0-9 4-5 9 6 11-34 55-80 88-16 11-61 31-100 42-87 27-245 30-354 7-41-9-76-14-79-12-2 2 22 10 54 17 31 7 52 15 45 17-11 4-31 0-123-25-10-2-18-8-18-13s8-7 18-3c9 3 1-5-18-19-24-16-36-20-38-12-4 18-44 13-49-6-2-9-18-22-34-29-20-9-28-18-25-28 3-8 2-11-4-8-5 3-14-4-20-15-18-34 22-25 45 10 11 16 24 30 29 30s3-7-4-15c-6-8-9-19-5-25 3-5 1-10-5-10s-8-5-5-11c4-6-1-16-11-24-11-7-16-17-11-21 4-4 7-2 7 4 0 7 4 12 9 12s7-8 4-18c-2-10-13-18-24-18-12 0-19 7-19 18 0 29-35 22-36-7-2-20 3-25 21-25 30 0 55-10 55-21 0-5-12-9-26-9-26 0-54-20-54-39 0-12 21-11 30 1 4 4 23 9 43 10 28 2 36 7 31 18-4 11-2 12 7 3s8-19-5-43c-8-18-13-38-10-44s-3-2-13 9-28 21-41 22c-29 2-24-19 7-27 12-3 21-9 21-15-2-13-20-8-41 11-8 8-19 14-22 14-12 0 29-64 43-68 13-5 13-3 0 13-10 12-10 16-2 11 7-4 18-3 25 2 18 15 29 15 38 0 6-9 9-7 9 8 0 23 32 43 38 25 4-11 42-16 42-5 0 3-6 12-14 19-10 11-22 12-45 5-39-11-41-2-2 11 27 10 29 13 20 36-7 19-6 28 1 33 7 4 11 10 11 14-1 3 0 5 2 4 1-2 10 4 19 12 11 11 13 19 6 28-14 17 2 15 22-3 14-13 19-12 46 13 18 17 28 34 26 47-4 20-3 20 15 1 13-13 15-20 5-23-7-3-25-18-41-34s-34-29-40-29-10-3-9-7c2-13-14-43-23-43-5 0-9 7-9 16 0 8-4 12-10 9-16-10-12-36 8-51 20-16 33-18 29-5-1 5 7 17 18 25 12 9 15 15 7 16-17 0 11 30 28 30 6 0 8 5 5 10-7 12 12 12 40 0 16-7 17-9 3-9-17-1-22-41-6-41 4 0 8-9 8-20s-4-20-10-20c-5 0-10-4-10-10 0-5 7-10 16-10 8 0 12-4 9-10s1-7 9-4c9 3 16 10 16 16 0 5-4 6-10 3-5-3-10-1-10 4 0 15 11 14 48-5 36-17 51-13 49 16-1 21-37 29-37 9 0-21-23-3-27 21-2 13-9 27-15 32-7 4-10 10-6 13 3 4 15-2 26-13s17-23 14-27c-4-4 2-6 13-4s25 0 32-4c14-9 45 2 37 14-9 14 12 10 25-5 6-7 9-21 5-30-5-12 0-16 17-17 13-1 28-1 32 0 12 2 37-26 30-33-7-6 12-10 36-6 12 1 13-1 2-13-11-14-7-15 28-14 48 2 55 22 12 32-22 5-28 11-24 22 5 12 1 14-15 8-13-4-22-2-22 4s5 11 12 11c9 0 9 3 1 11s-17 8-33-1c-15-8-20-8-16-1 9 14 0 14-25 1-10-6-19-7-19-2s15 15 33 24l32 16-25 10c-17 6-31 6-42-2-13-8-21-7-30 2-18 18-51 16-44-4 5-13 0-12-26 5-18 11-34 26-34 33-1 7-2 19-3 25 0 7-4 12-8 10-7-2-15 8-12 16 7 25 5 38-6 33-16-6-28 31-11 38 7 3 6 8-4 15-13 9-12 11 4 11 14 0 17-6 14-25-5-24-3-25 44-25 42 0 49-3 44-16-4-12-2-15 9-10 8 3 15 1 15-4 0-6 5-10 11-10s9 7 5 15c-3 9 0 15 10 15s14-6 10-15c-3-9 0-15 10-15 8 0 13 4 10 9-9 14 22 34 41 26 16-6 15-8-7-25-18-14-21-20-9-20 19 0 52 34 42 43-3 4 1 7 10 7s19-4 22-10c3-5 32-10 63-11 40-1 49-3 32-8-37-10-7-24 36-17 34 7 48-6 19-18-18-7-20-36-2-35 6 0 21 5 32 10 17 8 15 8-7 4-16-3-28-1-28 4 0 12 64 25 84 18 21-8 8-45-23-62l-26-15 30 7c17 4 44 8 61 8 24 0 30 4 30 23 0 12-4 22-10 22s-6 4 1 11c12 12 6 49-9 49-6 0-7 7-4 17 10 25-74 97-150 127-101 41-213 53-339 36z"/>
  <path d="m3116 1338c-3-12-3-24-1-27 3-2 5 1 5 8 0 9 5 9 20 1 25-14 17-30-15-30-14 0-29-9-35-20-8-16-8-20 4-20 22 0 66 26 58 35-4 5 1 5 11 2 13-5 16-3 11 6-5 7-1 7 10-2 13-11 14-16 4-22-10-7-10-9 2-9 8-1-3-7-24-15-22-8-42-13-45-12s-16-4-28-11-26-12-30-11c-19 3-34-2-29-10 8-12-22-23-37-14-7 4-3 10 9 15s6 6-16 2c-44-8-47-11-29-29 20-20 76-9 84 16 6 17 8 18 30 3 26-17 50-10 41 12-5 14 1 16 55 18 14 1 33 7 41 14 14 11 16 9 14-11-1-19-7-24-24-24-27-1-50-19-37-30 4-5 10-2 12 5 3 6 9 10 13 7 13-8 61 6 55 15-3 5 1 11 7 13 9 4 8 6-2 6-16 1-21 37-8 57 10 15 0 24-18 17-8-3-14-1-14 5s6 13 13 15c11 5-2 7-52 11-8 1-17 8-20 16-9 23-28 22-35-2z"/>
  <path d="m93 2366c4-9 2-26-3-38-9-23-9-23-14 25 0 7-15 12-35 12-33 0-34-1-37-48-3-51-4-49 67-60 27-4 28-1 30 56 0 15 2 27 4 27 9 0 36-61 30-69-3-5 4-7 16-4 19 5 21 11 16 57-6 47-4 48 9 6 5-13 7-13 15 2 12 22 1 48-22 48-14 0-19-7-20-27 0-16-3-22-6-15-2 6-9 10-13 7-5-3-12 0-16 6-5 8-3 9 6 4 8-5 11-3 8 6-3 8-13 16-23 18-13 2-16-1-12-13z"/>
  <path d="m263 2244c4-4-11-16-33-26-22-11-40-23-40-27 1-16 49-63 59-57 6 4 9 10 7 14s8 8 22 9c26 1 26 1 7-13-46-31-49-36-31-49 9-7 24-38 35-69l18-56h-22c-29 0-46 20-38 48 7 30-12 50-42 44-14-2-22-8-19-13s-1-9-8-9 0-11 16-23c18-14 26-28 22-36-4-6-4-10 1-9 4 1 18-3 31-10 13-8 32-10 45-6 21 6 21 6-3-15-14-13-20-20-15-17 15 7 72-23 80-42 3-8 1-20-5-26-5-5-10-18-10-28 0-15 3-17 19-8 11 5 33 10 50 10 16 0 37 7 45 16 20 19 20 25 1 18-8-4-15-2-15 4 0 5-11 7-25 4-15-2-25 0-25 7 0 6-7 11-15 11-10 0-15 10-15 30s5 30 15 30c8 0 15 3 15 8 0 4 17 8 37 9s39 6 42 11 21 17 39 26c17 9 32 21 32 26 0 6 7 10 15 10 21 0 85 32 85 42 0 5 4 7 9 3 5-3 13 0 17 6 5 8 3 9-6 4-10-6-12-4-7 9 9 22-26 56-58 56-14 0-25-5-25-11 0-5 5-7 12-3 7 5 8 3 3-6-6-10-3-12 13-8 13 4 20 2 16-4-3-5-17-7-31-3-14 3-22 2-19-3 3-6 0-10-7-9-32 1-43-5-44-23-2-18 1-19 20-8 12 7 26 11 31 10 5-2 12 2 16 8 5 7 11 6 20-5 11-13 10-14-5-9-12 5-16 4-12-3 4-6 1-13-6-16-21-8-89 1-101 13-8 8-6 9 7 5 10-4 17-2 17 4s-7 11-16 11-14 5-12 12c3 7 20 12 39 12 23 1 34 6 34 16 0 23-34 24-64 3-24-18-57-21-47-4 4 6-3 8-69 14-47 5-62 16-79 58-9 21-19 39-23 39-3 0-3-3 0-6z"/>
  <path d="m5 2128c5-76 5-58-1-245-5-143-4-153 13-154 16 0 16-1-2-9-17-7-15-9 13-9 17-1 32-5 32-10s3-17 7-27c4-11 3-15-5-11-6 4-13-1-15-10-3-13-5-12-6 5 0 13-5 21-10 17-5-3-13 0-17 6-4 7-3 9 2 6 6-3 16-2 24 4 11 6 8 9-12 9-32 0-37-20-10-46 15-16 15-17 0-11-15 5-17-6-16-116 0-67 2-116 5-109 5 14 23 16 23 3 0-5-7-17-16-26-14-13-14-18-2-32 7-9 8-14 2-10-7 4-11-5-11-23 0-16 4-27 9-24 4 3 8-2 8-11s-4-13-10-10c-7 4-10-212-10-639v-646h1321c924 0 1318 3 1313 11-13 21-48 27-62 10-7-9-12-11-11-6 1 6 1 17 0 25-1 13-2 13-11 0-7-11-10-12-10-2 0 9-7 11-22 7-17-6-20-4-15 9 5 12 0 16-16 16-25 0-54 16-46 25 4 3 18 1 33-5 15-5 33-10 39-9 7 0-33 16-87 34-96 33-156 37-156 12 0-6-2-8-5-5-11 11 7 37 23 32 14-5 15-4 2 4-8 5-26 13-40 17-24 7-24 6-6-7 15-12 16-17 6-23-9-5-11-4-6 3 7 12-3 14-70 15-30 1-39 15-20 34 4 4-16 15-45 25-47 16-54 16-70 3-14-14-22-14-58-3-22 7-41 16-41 20s-9 5-20 3c-28-5-25 2 6 18l27 14-33 11c-21 8-38 8-49 2-14-8-13-10 4-8 11 1 29 0 40-1 18-2 18-3-5-16-30-17-44-19-35-5 3 5-1 10-9 10-19 0-21 26-4 33 10 4 10 6 1 6-6 1-15-4-18-9-4-7-14-6-28 2-20 10-21 10-8-5 12-15 11-17-3-17-9 0-16 5-16 10 0 6-7 10-16 10-8 0-12 4-9 10 6 9-14 14-43 11-7-1-15 4-18 12-4 10-17 13-42 11-29-3-32-2-17 5 17 8 15 10-15 11-28 1-31 3-15 9 11 5 33 4 48-2 15-5 30-7 33-4s-57 26-132 51c-76 25-139 44-142 42-2-3 14-10 37-17 40-12 55-29 26-29-17 0-20-16-5-25s12-25-5-25c-9 0-12 6-8 16 4 12 2 15-8 12-8-3-13-10-12-15 3-17-72-1-104 23-17 13-39 24-47 24-9 0-16 5-16 11s-6 9-13 6c-6-2-24 4-38 14-21 15-29 32-38 80-10 62-35 104-53 93-6-4-8-18-5-31 4-22-1-28-45-47-27-12-45-26-41-30 4-5-2-6-15-3s-28-1-37-10c-8-8-20-11-26-7-7 4-9 3-6-3 7-11-69-43-108-46-11-1-23-6-27-11-4-6-13-4-22 4-14 11-16 10-10-3 4-12-5-19-35-28-22-7-38-16-34-22 3-6 2-7-4-4-10 6-67-13-250-82-47-17-90-28-100-24-16 6-17 5-3-12 8-10 10-16 3-12s-60-10-119-32c-84-32-108-38-118-28-6 7-12 17-13 22-1 13-42 224-47 248-3 10 2 17 10 17s14-10 14-22c0-13 7-42 15-66 9-24 12-48 9-54-4-7-2-8 4-4 7 4 12 1 12-9 0-9-4-14-8-11-10 6-9-51 1-60 3-4 18-7 33-7 16 0 21-2 14-7-9-6-9-9 1-14 8-3 4-4-8-2-27 5-40-11-24-27 9-9 11-7 5 8-5 16-4 17 5 9 10-9 23-8 52 4 36 14 40 18 34 41l-6 25 19-25c24-29 39-20 21 12-9 18-9 24 1 27 7 3 20 12 30 22 15 15 18 16 27 1 9-14 13-14 27-2 9 7 16 9 16 3s13-8 31-5c18 2 35 0 38-5 4-6 11-4 19 4 11 12 6 14-33 14-25 0-45 3-45 8 0 4 25 5 55 4 50-4 55-2 55 17 0 18-6 21-46 21-35 0-50-5-65-22-16-20-20-21-30-8-9 13-10 12-5-2 8-28-9-21-22 7-9 20-9 25 1 23 19-4 77 25 77 39 0 7 5 13 10 13 6 0 10-5 10-11 0-5 4-8 9-5 4 3 6 17 3 32-4 20-9 24-26 20-11-3-24-6-27-6s-5-10-4-23c1-12 0-14-2-4-3 12-12 17-31 15-24-3-27 0-29 31-1 18-6 38-12 44s-11 15-11 21 5 5 12-2 29-12 49-12c21 0 40-6 42-12 3-7 6-1 6 15 1 15 5 27 9 27 5 0 8-12 7-28-1-15 0-19 2-9 5 20 19 23 26 5 3-7 6-3 6 10 1 13 5 20 11 17s10 3 10 15-5 18-10 15c-6-3-22 3-36 14-23 18-39 21-113 19l-86-2 85-5c47-3 76-9 65-12-17-6-17-7-2-8 28-2 19-18-13-23-34-5-56 5-46 21 5 7-9 11-43 11-32 0-51 4-51 12 0 6-3 9-6 6-3-4-1-15 5-26 9-17 8-22-10-27-11-4-23-4-26-1-4 3 1 6 10 6 10 0 17 5 17 10 0 16-15 12-44-11-14-11-26-18-26-14 0 9 21 29 45 43 20 11 20 11-2 12-12 0-27-8-32-17-6-10-10-13-11-8 0 17 19 40 32 40 7 0 15 14 18 30 5 28 6 28 12 7 7-27 38-20 38 8 0 15-7 18-34 17-18-1-32-6-30-12 2-5-7-11-21-11-14-1-25 2-25 6 0 5-3 16-6 25-6 15 0 16 44 13 28-3 49-1 46 4-3 4-11 8-18 8-8 0-17 10-20 23-6 21-7 21-20 5-18-24-26-23-26 3 0 11 4 18 9 15 4-3 6 17 4 44-2 30 0 50 6 50s8-8 5-17c-5-17-5-17 9 0 8 9 19 17 25 17s14 5 18 12c5 8 2 9-9 5-15-6-15-3-4 26 8 18 22 34 33 35 10 2 24 9 29 14 7 8 4 9-9 4-13-4-17-2-13 8 3 8 1 16-6 19-7 2-12 25-12 60 0 37-4 57-12 57-6 0-14-8-16-17-4-15-5-15-6 2-1 11-11 31-22 45s-18 20-15 14c3-7-1-14-8-17-8-3-17-1-20 6-3 9-8 8-16-3-10-13-11-13-7 0 2 8 12 14 21 14 9-1 16 3 16 10 0 6 15 11 33 11 27 0 32 3 29 22-4 30 15 38 21 8 2-14 0-28-4-31-5-3-9-10-9-17 0-6 7-2 15 9 13 16 16 17 25 4 13-20 13-7-2 25-9 20-9 28 2 38 10 10 12 8 7-11-3-13-3-21 0-18s14 1 23-4c19-10 50 14 35 28-4 4-10 1-12-5-6-18-23-16-23 2 0 20 39 20 46 0 4-8 11-15 16-15 6 0 8 7 4 15-3 8-1 15 3 15 5 0 11-6 14-12 9-25 19 2 12 29-6 21-9 23-12 11-5-21-19-24-26-5-4 8-8 8-14 2-8-10-20-12-110-17-22-2-36-6-30-10 8-5 5-8-8-9-11-1-32-3-46-4-16-2-29 3-37 16-7 11-8 19-2 19 5 0 10-4 10-9 0-12 39-21 46-10 3 5 0 9-6 9s-18 6-26 14c-11 11-11 16-1 19 9 4 8 8-3 16-8 5-17 8-21 5-6-3-19 18-19 31 0 2 16 2 35 1 20-2 33-1 30 2s5 10 18 17c18 9 24 8 34-4 11-14 12-14 13 0 0 24-35 64-48 55-7-4-12-16-12-27s-4-18-9-14c-5 3-12 1-16-5-9-15-25-12-25 5 0 8 9 15 20 15s20 5 20 10c0 6-9 10-19 10-11 0-23 5-26 10-3 6-2 10 4 10 5 0 16 7 24 15 13 13 16 13 21 0 3-8 0-15-6-15s-8-3-5-6c10-10 38 17 31 28-4 6 9 8 35 5 22-2 38-1 36 3-3 5-2 16 1 25 5 12 9 13 14 5 4-7 13-9 19-6 6 4 9 11 6 15-2 5 8 6 23 4l27-4-29 26c-22 21-31 24-37 13-8-12-13-4-10 16 1 5-5 6-14 3-8-4-15-2-15 3 0 6-7 10-16 10-8 0-12 5-9 10 3 6 0 10-8 10-10 0-13 7-10 19s-2 20-16 24c-12 3-21 0-22-6 0-7-4-2-10 11-6 17-14 22-28 17-11-3-22-1-26 4-3 7 0 8 9 5 12-4 16 0 16 16 0 11 4 19 9 16 14-9 34 22 27 40-5 13-15 15-49 11-23-2-36-3-30 0 7 3 13 12 14 21 0 10 3 12 5 6 3-7 14-10 24-7 11 3 17 9 14 14s1 9 8 10c7 0 31 1 53 2 26 1 39 6 37 15-1 6 7 12 17 12 11 0 23 5 26 10 4 6-10 10-34 10-22 0-43 5-47 11-5 9 4 10 30 5 20-4 45-4 56-1 17 5 15 10-18 45-27 29-40 36-47 27-14-16-39-21-29-6 5 9 2 10-11 5s-15-3-8 6c6 7 9 33 8 57-2 34-8 47-30 61-28 18-20 34 12 24 17-5 16-4-1 10-11 9-16 16-10 17 5 1-2 4-16 8-17 4-33 23-48 54-34 68-52 62-47-15z"/>
  <path d="m830 1515c0-19-5-25-22-24-22 0-22 1-3 9l20 9-20 1-20 1 20 10c14 6 4 7-30 3-27-4-56-7-62-7-7 0-13-7-13-15 0-12-3-12-15-2-13 10-15 9-16-11-1-17-3-19-6-6-2 9-9 17-14 17-6 0-8-10-4-22l6-23-18 23c-20 24-33 20-33-10 0-10-4-18-10-18-10 0-14 18-12 50 0 13-1 13-11-1-7-9-29-19-51-23-29-6-36-10-27-19 6-6 11-19 11-29s5-18 10-18c6 0 10 11 10 25s5 25 10 25c6 0 10-9 10-20s5-20 11-20 8 7 5 17c-6 16-5 15 12-1 16-14 22-15 33-4 8 7 30 14 49 15 19 2 36 7 38 12 2 6 9 8 17 5 8-4 15 3 18 18l4 23 2-23c1-17 6-22 19-19 9 3 41 11 70 18 44 11 52 16 52 36 0 16-6 23-20 23-15 0-20-7-20-25z"/>
  <path d="m840 1367c0-9 5-17 12-19 7-3 6-7-5-11-12-5-17-1-17 13 0 11-6 20-12 20-23 0-41-18-35-34 4-9 2-16-3-16-6 0-10 9-10 21 0 16-4 19-17 14-10-4-27-8-38-10-11-1-23-3-27-4-4 0-8-11-10-23-4-29-28-36-28-8 0 20-4 22-32 16-18-4-35-11-36-16-2-6-8-8-13-4-5 3-9 0-9-5 0-6-4-11-10-11-5 0-10 8-10 18-1 15-2 15-10 1-10-18-2-59 12-59 5 0 7 4 3 9-3 5-1 12 4 15 5 4 13 1 17-6 5-8 10-6 15 8 7 17 8 17 8 1 1-18 21-17 77 4 12 4 25 5 28 2 3-4 6 1 6 9 0 9 7 18 15 22 8 3 15 1 15-4 0-14 46-12 62 3 7 6 29 12 48 12 31 0 35 3 35 25 0 16-6 26-17 28s-18-3-18-11z"/>
  <path d="m950 659c0-6-9-9-20-6s-18 2-15-3c3-4-6-11-19-14s-32-9-42-13c-12-4-15-3-10 5 4 8 2 10-8 6-11-4-12-13-6-34 6-22 5-30-7-35-9-3-18-3-21 0s0 5 6 5c7 0 12 9 12 19 0 14-5 18-20 14-11-3-20-13-20-22 0-14-2-14-10-1s-10 12-10-4c0-14-3-16-14-7-10 8-26 6-67-11-68-27-64-23-50-54 10-22 14-24 27-13 8 7 13 21 11 31-3 10-1 18 4 18s9-9 9-19c0-18 3-19 30-10 17 6 30 16 30 22 0 7 17 12 43 12 41 0 67 13 67 34 0 6 6 11 13 12 6 0 3 4-8 9-17 7-17 9-3 9 19 1 41-32 30-44-4-5-2-5 4-2 6 4 9 17 7 31-3 13 0 27 6 30 7 4 11-1 11-13 0-13 7-21 16-21 14 0 15-2 3-17-13-16-12-17 4-4 15 12 16 16 3 30-20 21-7 41 19 30 19-7 19-8 1-8-29-1-11-14 23-16 26-2 28-1 15 12-8 8-12 19-9 23 3 5-4 14-15 20-15 8-20 8-20-1z"/>
  <path d="m3657 584c3-8 10-14 15-14 6 0 6-6-2-14-6-8-18-12-26-9-10 3-12 0-8-10 8-22 34-29 40-12 9 23 64 15 82-13 8-12 12-25 9-29-4-3-11 5-16 18-7 19-8 15-7-23 1-54 2-55 45-63 31-5 32-5 16 11-13 14-14 19-3 25 10 7 8 9-5 9-28 0-17 35 11 35 12 0 21 5 19 10-1 6-8 9-14 9-7-1-13 8-13 20 0 15 3 17 9 8 4-8 11-13 15-13 18 3 25-1 50-24 15-14 22-25 17-25-6 0-11-5-11-11 0-13 26-40 32-33 10 9-4 53-22 72-11 11-16 23-12 28 4 4 1 4-5 0-9-5-13 0-13 13 0 12-7 21-15 21s-15-5-15-11c0-12-42-1-51 14-4 5-10 0-14-12-7-22-32-24-27-2 1 7-2 10-7 7-5-4-14 1-19 10-12 22-63 29-55 8z"/>
  <path d="m4415 328c9-28 43-85 53-90 16-7 65-102 54-106-8-2-6-14 5-36 11-25 20-32 34-29 15 4 18 1 13-11s0-16 22-16l29-1-25-14c-14-8-20-15-15-15 6-1 17-3 26-5 10-2 21 7 28 21 6 13 7 24 3 24s-13 15-21 33c-19 43-48 74-77 81-13 4-24 14-24 23 0 15 2 15 19-1s20-16 54 4c23 14 38 17 42 10s12-7 26 0c14 8 18 17 13 36s-3 23 10 18c9-3 16-2 16 4s-6 13-12 15c-8 4-7 6 3 6 19 1 33 28 19 36-6 4-10 0-10-7 0-9-3-9-10 2-9 13-10 13-10 0s-1-13-10 0c-8 12-10 10-10-9s-4-23-25-19c-21 5-24 2-19-17 6-24-10-43-21-25-3 5-1 10 6 10s9 3 5 7c-12 12-40 9-55-5-11-11-11-15 4-26 17-12 17-13 0-19-12-5-18-1-22 13-3 11-14 20-24 20-11 0-22 7-25 15-4 8-10 13-14 10-5-3-16 15-26 40-17 45-41 64-29 23z"/>
  <path d="m2482 234c4-3 12-7 20-8 7-2 26-8 41-14 15-7 39-15 52-18 14-3 25-13 25-21s-4-11-10-8c-13 8-13-5 0-25 9-13 10-13 10 0 1 46 9 45 296-49 274-89 317-100 328-82 4 5-4 7-16 4-19-4-20-3-8 7 12 9 8 10-20 5-21-4-30-3-23 2 8 6-1 9-24 9-20 0-38 5-40 11-3 7-11 9-19 6s-14 0-14 7c0 6-4 9-9 6-11-7-114 28-106 35 3 4-5 4-19 2-18-4-26 0-31 16-3 12-11 21-16 21-13 0-11-17 4-24 6-3 1-3-13 0-14 4-27 10-30 13-3 4-16 8-29 8-13 1-27 6-30 10s-17 9-30 11c-14 1-33 10-42 18-10 9-22 13-28 10-14-9-62 4-55 15 3 5-1 6-9 3s-38 4-68 15c-51 20-99 28-87 15z"/>
  <path d="m4608 178c-17-21-17-23 0-42 11-12 29-37 41-58 21-35 23-36 59-26 20 5 47 19 58 30 12 10 33 20 48 22 30 3 48 16 21 16-14 0-15 3-5 15 15 18 13 21-21 30-18 4-31 1-42-9-9-9-23-13-34-10-17 6-17 6 1-8 15-12 16-17 6-23-8-5-18-2-25 8-14 19-26 12-18-9 3-8 0-14-6-14s-12 5-12 10c-1 6-3 15-4 20-1 6-3 21-4 35 0 14-6 25-12 25-5 0-8-4-5-9s-1-11-8-14c-9-4-16 1-18 13-3 19-4 18-20-2z"/>
 </g>
</svg>
